<svg width="92" height="92" viewBox="0 0 92 92" fill="none" xmlns="http://www.w3.org/2000/svg">
<path d="M78.3081 91.1099H14.0894C6.69477 91.1099 0.698746 85.1138 0.698746 77.7192V13.5005C0.698746 6.10592 6.69477 0.109863 14.0894 0.109863H78.3081C85.7027 0.109863 91.6988 6.10592 91.6988 13.5005V77.7192C91.6988 85.1138 85.7027 91.1099 78.3081 91.1099Z" fill="white"/>
<path d="M60.444 27.1068V18.1382C60.444 18.1382 51.2716 18.0532 50.6488 18.0532C46.5042 18.0532 40.5421 22.7697 40.5421 28.1203C40.5421 34.1504 40.5421 37.7231 40.5421 37.7231H31.9527V47.9091H40.4288V73.1787H50.4563V47.7958H59.3173L60.444 37.842H50.5695C50.5695 37.842 50.5695 31.727 50.5695 30.5323C50.5695 28.7771 51.8887 27.0615 53.8761 27.0615C55.1953 27.0559 60.444 27.1068 60.444 27.1068Z" fill="#343233"/>
</svg>
