<svg width="91" height="92" viewBox="0 0 91 92" fill="none" xmlns="http://www.w3.org/2000/svg">
<path d="M77.6093 91.1099H13.3907C5.99606 91.1099 0 85.1138 0 77.7192V13.5006C0 6.10596 5.99606 0.109863 13.3907 0.109863H77.6093C85.0039 0.109863 91 6.10596 91 13.5006V77.7192C91 85.1138 85.0039 91.1099 77.6093 91.1099Z" fill="white"/>
<path d="M56.3539 74.1693H34.4589C24.6976 74.1693 16.7594 66.2311 16.7594 56.4698V34.5691C16.7594 24.8078 24.6976 16.8696 34.4589 16.8696H56.3539C66.1152 16.8696 74.0534 24.8078 74.0534 34.5691V56.4641C74.0591 66.2255 66.1152 74.1693 56.3539 74.1693ZM34.4589 23.2564C28.2193 23.2564 23.1461 28.3296 23.1461 34.5691V56.4641C23.1461 62.7037 28.2193 67.7769 34.4589 67.7769H56.3539C62.5935 67.7769 67.6666 62.7037 67.6666 56.4641V34.5691C67.6666 28.3296 62.5935 23.2564 56.3539 23.2564H34.4589Z" fill="#343233"/>
<path d="M45.4094 60.1609C37.3354 60.1609 30.7674 53.593 30.7674 45.5189C30.7674 37.4449 37.3354 30.877 45.4094 30.877C53.4834 30.877 60.0514 37.4449 60.0514 45.5189C60.0514 53.593 53.4834 60.1609 45.4094 60.1609ZM45.4094 36.6239C40.5061 36.6239 36.5144 40.6156 36.5144 45.5189C36.5144 50.4222 40.5061 54.4139 45.4094 54.4139C50.3127 54.4139 54.3044 50.4222 54.3044 45.5189C54.3044 40.61 50.3127 36.6239 45.4094 36.6239Z" fill="#343233"/>
<path d="M60.7929 32.4965C62.1594 32.4965 63.2672 31.3887 63.2672 30.0222C63.2672 28.6556 62.1594 27.5479 60.7929 27.5479C59.4263 27.5479 58.3186 28.6556 58.3186 30.0222C58.3186 31.3887 59.4263 32.4965 60.7929 32.4965Z" fill="#343233"/>
</svg>
