<svg width="92" height="92" viewBox="0 0 92 92" fill="none" xmlns="http://www.w3.org/2000/svg">
<path d="M78.0639 91.1099H13.8453C6.45072 91.1099 0.45462 85.1138 0.45462 77.7192V13.5005C0.45462 6.10592 6.45072 0.109863 13.8453 0.109863H78.0639C85.4585 0.109863 91.4546 6.10592 91.4546 13.5005V77.7192C91.4546 85.1138 85.4585 91.1099 78.0639 91.1099Z" fill="white"/>
<path d="M42.5347 37.1333L47.591 31.9753C47.591 31.9753 41.4986 26.4944 31.5221 28.5724C22.2647 30.4975 19.3148 36.9522 18.4768 42.0593C17.6728 46.9456 18.5957 53.4343 22.5308 57.6921C25.3958 60.7893 28.8893 63.1277 36.3122 63.1277C44.0805 63.1277 53.1793 56.7183 52.6471 42.2462H35.5705V49.0576H45.3035C45.3035 49.0576 43.9843 55.5066 37.0596 55.9199C32.6376 56.186 26.7377 54.7479 25.5657 47.676C24.6994 42.4273 26.7717 36.369 33.1528 35.4121C39.5396 34.4439 42.5347 37.1333 42.5347 37.1333Z" fill="#343233"/>
<path d="M73.6981 42.4106H67.4359V36.1484H62.8837V42.4106H56.6214V46.9629H62.8837V53.2251H67.4359V46.9629H73.6981V42.4106Z" fill="#343233"/>
</svg>
