<svg width="146" height="147" viewBox="0 0 146 147" fill="none" xmlns="http://www.w3.org/2000/svg">
<path d="M76.6764 80.2888H18.1246C16.9435 80.2888 15.9858 81.2461 15.9858 82.4276C15.9858 83.6091 16.9435 84.5664 18.1246 84.5664H76.6761C77.8575 84.5664 78.8149 83.6088 78.8149 82.4276C78.8151 81.2461 77.8575 80.2888 76.6764 80.2888V80.2888Z" fill="white"/>
<path d="M76.6764 93.786H18.1246C16.9435 93.786 15.9858 94.7433 15.9858 95.9248C15.9858 97.1063 16.9435 98.0636 18.1246 98.0636H76.6761C77.8575 98.0636 78.8149 97.1063 78.8149 95.9248C78.8151 94.7433 77.8575 93.786 76.6764 93.786V93.786Z" fill="white"/>
<path d="M47.4005 107.283H18.1246C16.9435 107.283 15.9858 108.241 15.9858 109.422C15.9858 110.603 16.9435 111.561 18.1246 111.561H47.4005C48.5817 111.561 49.5393 110.603 49.5393 109.422C49.5393 108.241 48.5817 107.283 47.4005 107.283Z" fill="white"/>
<path d="M132.946 53.294H74.3943C73.2131 53.294 72.2555 54.2513 72.2555 55.4328C72.2555 56.6143 73.2131 57.5716 74.3943 57.5716H132.946C134.127 57.5716 135.085 56.6143 135.085 55.4328C135.085 54.2513 134.127 53.294 132.946 53.294Z" fill="white"/>
<path d="M132.946 66.7913H103.67C102.489 66.7913 101.531 67.7486 101.531 68.9301C101.531 70.1115 102.489 71.0689 103.67 71.0689H132.946C134.127 71.0689 135.085 70.1115 135.085 68.9301C135.085 67.7486 134.127 66.7913 132.946 66.7913V66.7913Z" fill="white"/>
<path d="M13.2421 27.0259H34.6303C35.8115 27.0259 36.7691 26.0686 36.7691 24.8871C36.7691 23.7056 35.8115 22.7483 34.6303 22.7483H13.2421C12.0609 22.7483 11.1033 23.7056 11.1033 24.8871C11.1033 26.0686 12.0609 27.0259 13.2421 27.0259V27.0259Z" fill="white"/>
<path d="M80.9965 64.3428H13.8044C6.19282 64.3428 0 70.5353 0 78.1471V112.852C0 120.464 6.19253 126.657 13.8044 126.657H14.2866L11.5224 142.004C11.2612 143.455 11.9573 144.9 13.2546 145.6C14.5678 146.308 16.1553 146.076 17.2108 145.073L36.1368 127.108C36.4434 126.816 36.8446 126.657 37.2673 126.657H80.9963C88.6081 126.657 94.8006 120.464 94.8006 112.852V78.1471C94.8012 70.5353 88.6084 64.3428 80.9965 64.3428V64.3428ZM90.5233 112.852C90.5233 118.105 86.2494 122.379 80.9965 122.379H37.2675C35.7442 122.379 34.2969 122.956 33.1919 124.005L16.2067 140.128L18.6067 126.803C19.0222 124.496 17.2481 122.379 14.908 122.379H13.8044C8.55148 122.379 4.27788 118.105 4.27788 112.852V78.1471C4.27788 72.8943 8.55148 68.6204 13.8044 68.6204H80.9965C86.2494 68.6204 90.5233 72.8943 90.5233 78.1471V112.852Z" fill="white"/>
<path d="M8.39226 38.0449H24.3448C24.3776 38.0449 24.4082 38.0626 24.4244 38.0906L31.238 49.854C31.9476 51.0793 33.2169 51.8108 34.6327 51.8108C36.0489 51.8108 37.3179 51.0793 38.0277 49.854L44.8411 38.0908C44.8576 38.0623 44.8881 38.0449 44.9209 38.0449H60.8732C65.4389 38.0449 69.1529 34.3306 69.1529 29.7649V8.27971C69.1527 3.71438 65.4386 0 60.8729 0H8.39226C3.82693 0 0.112549 3.71438 0.112549 8.27971V9.18343C0.112549 10.3649 1.07016 11.3222 2.25135 11.3222C3.43253 11.3222 4.39014 10.3649 4.39014 9.18343V8.27971C4.39043 6.07276 6.18559 4.2776 8.39226 4.2776H60.8729C63.0796 4.2776 64.8751 6.07276 64.8751 8.27943V29.7646C64.8751 31.9713 63.0796 33.7668 60.8729 33.7668H44.9207C43.367 33.7668 41.9181 34.602 41.1393 35.9463L34.6325 47.1799L28.126 35.9463C27.3471 34.602 25.8985 33.7668 24.3446 33.7668H8.39198C6.18531 33.7668 4.39014 31.9713 4.39014 29.7646V19.1816C4.39014 18.0001 3.43253 17.0428 2.25135 17.0428C1.07016 17.0428 0.112549 18.0001 0.112549 19.1816V29.7649C0.112549 34.3306 3.82693 38.0449 8.39226 38.0449V38.0449Z" fill="white"/>
<path d="M133.502 40.1401H73.8375C66.9463 40.1401 61.3401 45.7466 61.3401 52.6376V56.4834C61.3401 57.6649 62.2977 58.6222 63.4789 58.6222C64.6601 58.6222 65.6177 57.6649 65.6177 56.4834V52.6376C65.6177 48.105 69.305 44.4177 73.8372 44.4177H133.502C138.035 44.4177 141.722 48.105 141.722 52.6376V83.051C141.722 87.5835 138.035 91.2708 133.502 91.2708H132.522C130.291 91.2708 128.607 93.2895 129.002 95.4814L131.003 106.594L116.452 92.7811C115.426 91.8072 114.082 91.2708 112.668 91.2708H102.661C101.479 91.2708 100.522 92.2281 100.522 93.4096C100.522 94.5911 101.479 95.5484 102.661 95.5484H112.668C112.981 95.5484 113.279 95.6673 113.506 95.8832L130.312 111.836C131.334 112.806 132.858 113.014 134.104 112.341C135.348 111.67 136.014 110.285 135.764 108.895L133.36 95.5487H133.502C140.393 95.5487 145.999 89.9422 145.999 83.0513V52.6376C146 45.7464 140.393 40.1401 133.502 40.1401V40.1401Z" fill="white"/>
</svg>
