<svg width="148" height="146" viewBox="0 0 148 146" fill="none" xmlns="http://www.w3.org/2000/svg">
<path d="M130.693 85.813L129.937 86.221C126.883 82.5143 121.591 81.078 117.559 83.1213C117.545 83.1283 117.53 83.1359 117.516 83.1433L115.731 84.1044C113.602 82.3017 110.969 81.1998 108.191 80.9487C105.413 80.6977 102.625 81.3099 100.207 82.7018L90.5946 87.9296H77.8036C75.034 87.9259 72.3006 87.2996 69.8056 86.097L68.046 85.2459C63.0364 82.8084 57.45 81.8049 51.9053 82.3464C46.3606 82.8879 41.0739 84.9534 36.6306 88.314C36.5888 88.3459 36.548 88.3778 36.5091 88.4138L32.2609 92.1957C30.6554 93.6216 28.7577 94.6794 26.7006 95.2951L24.2878 87.3749C24.1682 86.9829 23.9259 86.6396 23.5966 86.3957C23.2672 86.1518 22.8682 86.0202 22.4584 86.0202H1.91265C1.64194 86.0202 1.37432 86.0776 1.12747 86.1888C0.880627 86.2999 0.660183 86.4621 0.480717 86.6648C0.301251 86.8675 0.166851 87.1059 0.0864047 87.3644C0.00595817 87.6229 -0.0187023 87.8955 0.0140532 88.1642L6.86252 144.319C6.91905 144.783 7.14336 145.21 7.49313 145.519C7.84289 145.829 8.29393 146 8.76111 146H39.5779C39.8768 146 40.1715 145.93 40.4385 145.795C40.7054 145.661 40.9371 145.466 41.1149 145.226C41.2928 144.985 41.4119 144.707 41.4627 144.412C41.5135 144.118 41.4945 143.815 41.4073 143.53L37.359 130.245L49.9676 122.276C51.6547 121.342 53.6339 121.086 55.5031 121.56C55.5426 121.569 55.5824 121.578 55.6226 121.585L81.2705 126.308C88.2406 127.555 95.4269 126.541 101.779 123.413C101.86 123.373 101.939 123.327 102.013 123.275L146.375 92.8164C146.776 92.5404 147.058 92.1214 147.161 91.645C147.264 91.1686 147.182 90.6707 146.931 90.2531C145.316 87.5648 142.727 85.6027 139.703 84.7756C136.678 83.9485 133.451 84.3201 130.693 85.813V85.813ZM119.308 86.5232C121.64 85.3555 124.575 86.3128 126.45 88.1021L109.628 97.1774L108.64 97.698C108.107 96.1856 107.329 94.7713 106.336 93.5122L119.308 86.5232ZM102.058 86.0498C102.073 86.0412 102.09 86.0329 102.103 86.024C103.61 85.1531 105.323 84.7023 107.063 84.7187C108.803 84.7351 110.507 85.218 111.997 86.1171L103.444 90.722C101.814 89.532 99.9531 88.6946 97.9811 88.2633L102.058 86.0498ZM10.4531 142.175L4.07296 89.8454H21.0408L36.9952 142.175H10.4531ZM99.9588 120.042C94.3736 122.761 88.0697 123.637 81.9549 122.544L56.3701 117.832C53.5559 117.138 50.5828 117.541 48.055 118.959C48.0253 118.976 47.9957 118.993 47.9667 119.012L36.1993 126.451L27.8156 98.9568C30.4008 98.1777 32.7849 96.8444 34.8021 95.0497L38.9904 91.32C42.8709 88.4027 47.4812 86.613 52.3137 86.1481C57.1461 85.6833 62.0131 86.5613 66.3785 88.6854L68.1378 89.5365C71.1524 90.9895 74.4549 91.7462 77.8014 91.7507H94.8635C97.371 91.7543 99.7989 92.6309 101.73 94.23C103.661 95.8292 104.976 98.0509 105.447 100.514L93.08 99.9543C88.5843 99.7522 84.0795 99.9604 79.6215 100.576C79.123 100.65 78.6738 100.918 78.3716 101.321C78.0694 101.725 77.9387 102.231 78.0078 102.73C78.077 103.23 78.3404 103.681 78.7408 103.988C79.1412 104.294 79.6463 104.429 80.1462 104.365C84.373 103.781 88.6443 103.584 92.9069 103.776L107.461 104.434C107.49 104.434 107.519 104.436 107.547 104.436C108.055 104.436 108.541 104.235 108.9 103.876C109.259 103.517 109.46 103.031 109.46 102.524C109.46 102.214 109.447 101.907 109.428 101.602L111.424 100.55L132.51 89.1779C134.13 88.301 135.993 87.9836 137.812 88.275C139.63 88.5665 141.301 89.4505 142.566 90.7896L99.9588 120.042Z" fill="white"/>
<path d="M16.5333 134.262C16.5333 135.453 16.8865 136.617 17.5481 137.608C18.2098 138.598 19.1502 139.37 20.2505 139.825C21.3508 140.281 22.5616 140.4 23.7296 140.168C24.8977 139.936 25.9707 139.362 26.8128 138.52C27.6549 137.678 28.2284 136.605 28.4608 135.437C28.6931 134.269 28.5739 133.058 28.1181 131.958C27.6623 130.858 26.8905 129.917 25.9003 129.255C24.9101 128.594 23.7459 128.241 22.5549 128.241C20.9584 128.242 19.4278 128.877 18.299 130.006C17.1701 131.135 16.5351 132.666 16.5333 134.262V134.262ZM22.5549 132.066C22.9893 132.066 23.4139 132.195 23.7751 132.436C24.1363 132.677 24.4178 133.02 24.584 133.422C24.7503 133.823 24.7938 134.265 24.709 134.691C24.6243 135.117 24.4151 135.508 24.1079 135.815C23.8008 136.122 23.4094 136.332 22.9834 136.416C22.5573 136.501 22.1157 136.458 21.7144 136.291C21.3131 136.125 20.9701 135.844 20.7287 135.482C20.4874 135.121 20.3586 134.697 20.3586 134.262C20.3596 133.68 20.5913 133.122 21.003 132.711C21.4147 132.299 21.9728 132.067 22.5549 132.067V132.066Z" fill="white"/>
<path d="M87.9739 20.7528V14.45C87.956 10.6114 86.4185 6.93619 83.6978 4.22822C80.9771 1.52026 77.2947 0 73.456 0C69.6174 0 65.935 1.52026 63.2143 4.22822C60.4936 6.93619 58.9561 10.6114 58.9381 14.45V20.7528C58.9561 24.5914 60.4936 28.2666 63.2143 30.9746C65.935 33.6826 69.6174 35.2028 73.456 35.2028C77.2947 35.2028 80.9771 33.6826 83.6978 30.9746C86.4185 28.2666 87.956 24.5914 87.9739 20.7528ZM62.7634 20.7528V14.45C62.7788 11.6243 63.9121 8.91952 65.9157 6.92684C67.9193 4.93416 70.6302 3.8156 73.456 3.8156C76.2818 3.8156 78.9927 4.93416 80.9963 6.92684C82.9999 8.91952 84.1333 11.6243 84.1487 14.45V20.7528C84.1333 23.5785 82.9999 26.2833 80.9963 28.276C78.9927 30.2687 76.2818 31.3872 73.456 31.3872C70.6302 31.3872 67.9193 30.2687 65.9157 28.276C63.9121 26.2833 62.7788 23.5785 62.7634 20.7528V20.7528Z" fill="white"/>
<path d="M50.2255 73.4526H97.028C97.5353 73.4526 98.0218 73.2511 98.3804 72.8924C98.7391 72.5337 98.9406 72.0473 98.9406 71.54V67.1499H130.98C131.488 67.1499 131.974 66.9484 132.333 66.5897C132.691 66.231 132.893 65.7445 132.893 65.2373V52.8231C132.891 49.1804 131.502 45.6752 129.009 43.0194C126.516 40.3636 123.105 38.7564 119.47 38.5243C118.45 38.4494 117.926 39.0952 117.5 39.6139C116.654 40.6477 115.583 41.4748 114.369 42.032C113.155 42.5893 111.829 42.862 110.494 42.8293C109.158 42.7967 107.848 42.4596 106.662 41.8438C105.476 41.228 104.447 40.3496 103.652 39.2757C103.47 39.0285 103.23 38.829 102.954 38.694C102.678 38.559 102.374 38.4925 102.067 38.5001C99.582 38.5559 97.1557 39.2637 95.0309 40.5527C93.6281 38.9214 91.9122 37.5884 89.9848 36.6324C88.0574 35.6764 85.9577 35.117 83.8102 34.9873C82.822 34.9471 82.3222 35.547 81.838 36.1348C80.8451 37.3482 79.5884 38.3188 78.1635 38.9728C76.7387 39.6268 75.1833 39.9469 73.616 39.9086C72.0487 39.8703 70.5108 39.4747 69.1195 38.7519C67.7283 38.0292 66.5204 36.9983 65.588 35.738C65.4057 35.4905 65.1663 35.2908 64.8902 35.1558C64.6141 35.0208 64.3094 34.9546 64.0021 34.9627C59.8077 35.0597 55.819 36.7996 52.8946 39.808C52.653 40.0551 52.4238 40.311 52.2003 40.5708C50.2254 39.3685 47.987 38.6658 45.6792 38.5237C44.6627 38.4488 44.1345 39.0946 43.7095 39.6132C42.8634 40.6471 41.7924 41.4742 40.5782 42.0314C39.364 42.5886 38.0386 42.8613 36.703 42.8287C35.3674 42.7961 34.0569 42.459 32.8714 41.8432C31.6858 41.2273 30.6565 40.349 29.8618 39.275C29.679 39.0282 29.4394 38.8289 29.1635 38.6939C28.8875 38.5589 28.5831 38.4922 28.2759 38.4995C24.54 38.5946 20.9891 40.1453 18.3802 42.8211C15.7713 45.4969 14.3108 49.086 14.3103 52.8231V65.2373C14.3103 65.7445 14.5118 66.231 14.8705 66.5897C15.2292 66.9484 15.7157 67.1499 16.2229 67.1499H48.3129V71.54C48.3129 72.0473 48.5144 72.5337 48.8731 72.8924C49.2318 73.2511 49.7183 73.4526 50.2255 73.4526V73.4526ZM101.25 42.3859C102.429 43.7243 103.879 44.7972 105.503 45.5336C107.128 46.2701 108.891 46.6533 110.674 46.6579C112.458 46.6626 114.222 46.2886 115.851 45.5607C117.479 44.8328 118.935 43.7675 120.121 42.4353C122.608 42.8106 124.878 44.0649 126.52 45.9708C128.161 47.8767 129.065 50.3078 129.068 52.8231V63.3247H98.9406V51.0549C98.9427 48.5078 98.3367 45.9971 97.1731 43.7314C98.4229 43.0026 99.8117 42.5442 101.25 42.3859V42.3859ZM63.1778 38.846C64.5002 40.3769 66.136 41.606 67.9746 42.45C69.8131 43.294 71.8115 43.7332 73.8345 43.738C75.8575 43.7428 77.858 43.3131 79.7005 42.4778C81.543 41.6426 83.1847 40.4213 84.5144 38.8967C87.4512 39.3028 90.1421 40.7573 92.0906 42.9918C94.0392 45.2263 95.1139 48.0901 95.1167 51.0549V69.6274H52.1381V51.0549C52.1571 48.0191 53.293 45.0965 55.3292 42.8447C57.3653 40.5929 60.1592 39.1694 63.1778 38.846V38.846ZM18.1355 63.3247V52.8231C18.1517 50.2461 19.1082 47.7637 20.8253 45.8422C22.5423 43.9206 24.9019 42.692 27.4609 42.3872C28.64 43.7252 30.0897 44.7977 31.7142 45.5338C33.3386 46.2699 35.1008 46.6529 36.8842 46.6574C38.6676 46.662 40.4317 46.288 42.0599 45.5602C43.688 44.8323 45.1432 43.7673 46.3292 42.4353C47.6461 42.6322 48.9132 43.0793 50.062 43.7525C48.9088 46.0137 48.3094 48.5166 48.3129 51.0549V63.3247H18.1355Z" fill="white"/>
<path d="M123.443 25.2399V19.723C123.443 16.2895 122.079 12.9967 119.651 10.5688C117.223 8.14101 113.93 6.77707 110.497 6.77707C107.063 6.77707 103.77 8.14101 101.343 10.5688C98.9147 12.9967 97.5508 16.2895 97.5508 19.723V25.2399C97.5508 28.6734 98.9147 31.9662 101.343 34.3941C103.77 36.8219 107.063 38.1858 110.497 38.1858C113.93 38.1858 117.223 36.8219 119.651 34.3941C122.079 31.9662 123.443 28.6734 123.443 25.2399V25.2399ZM101.376 25.2399V19.723C101.376 17.304 102.337 14.9841 104.047 13.2737C105.758 11.5632 108.078 10.6023 110.497 10.6023C112.916 10.6023 115.235 11.5632 116.946 13.2737C118.656 14.9841 119.617 17.304 119.617 19.723V25.2399C119.617 27.6589 118.656 29.9788 116.946 31.6892C115.235 33.3997 112.916 34.3606 110.497 34.3606C108.078 34.3606 105.758 33.3997 104.047 31.6892C102.337 29.9788 101.376 27.6589 101.376 25.2399V25.2399Z" fill="white"/>
<path d="M49.6523 25.2399V19.723C49.6523 18.0229 49.3174 16.3395 48.6669 14.7688C48.0163 13.1981 47.0627 11.771 45.8605 10.5688C44.6584 9.3667 43.2313 8.41311 41.6606 7.76252C40.0899 7.11192 38.4065 6.77707 36.7064 6.77707C35.0063 6.77707 33.3229 7.11192 31.7522 7.76252C30.1815 8.41311 28.7544 9.3667 27.5523 10.5688C26.3501 11.771 25.3965 13.1981 24.7459 14.7688C24.0954 16.3395 23.7605 18.0229 23.7605 19.723V25.2399C23.7605 26.94 24.0954 28.6234 24.7459 30.1941C25.3965 31.7648 26.3501 33.1919 27.5523 34.3941C28.7544 35.5962 30.1815 36.5498 31.7522 37.2004C33.3229 37.851 35.0063 38.1858 36.7064 38.1858C38.4065 38.1858 40.0899 37.851 41.6606 37.2004C43.2313 36.5498 44.6584 35.5962 45.8605 34.3941C47.0627 33.1919 48.0163 31.7648 48.6669 30.1941C49.3174 28.6234 49.6523 26.94 49.6523 25.2399V25.2399ZM27.5857 25.2399V19.723C27.5857 17.304 28.5467 14.9841 30.2571 13.2737C31.9676 11.5632 34.2874 10.6023 36.7064 10.6023C39.1253 10.6023 41.4452 11.5632 43.1557 13.2737C44.8661 14.9841 45.8271 17.304 45.8271 19.723V25.2399C45.8271 26.4377 45.5911 27.6237 45.1328 28.7303C44.6744 29.8368 44.0026 30.8423 43.1557 31.6892C42.3087 32.5361 41.3033 33.208 40.1967 33.6663C39.0902 34.1247 37.9041 34.3606 36.7064 34.3606C35.5087 34.3606 34.3226 34.1247 33.2161 33.6663C32.1095 33.208 31.1041 32.5361 30.2571 31.6892C29.4102 30.8423 28.7384 29.8368 28.28 28.7303C27.8217 27.6237 27.5857 26.4377 27.5857 25.2399V25.2399Z" fill="white"/>
</svg>
