<svg width="131" height="145" viewBox="0 0 131 145" fill="none" xmlns="http://www.w3.org/2000/svg">
<path d="M12.2827 81.0667C10.9261 81.0667 9.82617 82.1666 9.82617 83.5232V93.3494C9.82617 94.706 10.9261 95.8059 12.2827 95.8059C13.6393 95.8059 14.7393 94.706 14.7393 93.3494V83.5232C14.7393 82.1666 13.6393 81.0667 12.2827 81.0667Z" fill="white"/>
<path d="M22.1089 85.9797C20.7523 85.9797 19.6523 87.0797 19.6523 88.4363V98.2625C19.6523 99.6191 20.7523 100.719 22.1089 100.719C23.4655 100.719 24.5654 99.6191 24.5654 98.2625V88.4363C24.5654 87.0797 23.4655 85.9797 22.1089 85.9797Z" fill="white"/>
<path d="M111.709 99.164C110.564 98.4363 109.046 98.7749 108.318 99.92C107.62 101.019 107.9 102.472 108.958 103.232C115.71 107.779 117.498 116.938 112.952 123.69C108.406 130.443 99.2461 132.231 92.494 127.685C85.7416 123.138 83.9532 113.979 88.4997 107.226C91.2372 103.161 95.8171 100.721 100.719 100.719C102.075 100.719 103.175 99.6191 103.175 98.2625C103.175 96.9058 102.075 95.8059 100.719 95.8059C89.8649 95.8081 81.0677 104.608 81.0698 115.462C81.072 126.316 89.8723 135.113 100.726 135.111C111.58 135.109 120.377 126.308 120.375 115.455C120.373 108.922 117.126 102.816 111.709 99.164Z" fill="white"/>
<path d="M129.04 107.299C126.66 99.0538 120.803 92.2559 113.001 88.682V34.3922C113.002 33.5235 112.543 32.7193 111.795 32.2771L57.751 0.341998C56.9797 -0.113999 56.0213 -0.113999 55.2503 0.341998L1.20617 32.2771C1.15458 32.3066 1.11773 32.3508 1.0686 32.3852C1.01947 32.4196 0.972794 32.4589 0.923663 32.4982C0.71025 32.6662 0.52693 32.8689 0.380765 33.0976C0.380765 33.1148 0.351287 33.1246 0.34146 33.1418V33.159C0.202972 33.4087 0.10901 33.6804 0.0638705 33.9623C0.0638705 34.036 0.0417613 34.1048 0.0343917 34.1785C0.027022 34.2522 1.54054e-07 34.3185 1.54054e-07 34.3922V98.2625C-0.000306915 99.1312 0.458454 99.9354 1.20617 100.378L55.2503 132.313C55.3151 132.344 55.3814 132.372 55.4492 132.396C55.5162 132.43 55.5853 132.459 55.6556 132.485C56.1963 132.711 56.8049 132.711 57.3457 132.485C57.4169 132.459 57.4866 132.43 57.5545 132.396C57.6184 132.367 57.6872 132.35 57.751 132.313L72.4191 123.644C76.9327 139.279 93.2663 148.295 108.902 143.781C124.537 139.268 133.553 122.934 129.04 107.299ZM56.5006 5.30914L69.2747 12.8581L50.3347 24.0502C49.166 24.7408 48.7782 26.2482 49.4688 27.4169C50.1594 28.5856 51.6668 28.9734 52.8355 28.2828L74.1067 15.7225L86.8808 23.2714L37.6663 52.3447L24.8922 44.7957L45.4707 32.6358C46.6394 31.9452 47.0273 30.4378 46.3367 29.2691C45.6461 28.1004 44.1387 27.7126 42.97 28.4032L20.0626 41.9412L7.28613 34.3922L56.5006 5.30914ZM35.2097 56.6019V73.0043L22.5192 65.5044V49.1021L35.2097 56.6019ZM72.2106 107.865C71.5571 110.343 71.2307 112.896 71.2399 115.458C71.2406 116.486 71.2946 117.514 71.4021 118.536L58.9572 125.894V117.915C58.9572 116.558 57.8573 115.458 56.5006 115.458C55.144 115.458 54.0441 116.558 54.0441 117.915V125.894L4.9131 96.8623V38.6986L17.6061 46.1984V66.9047C17.6052 67.7743 18.0636 68.5797 18.8123 69.0222L36.4159 79.4257C36.7948 79.6486 37.2266 79.7665 37.6663 79.7672C39.0229 79.7672 40.1228 78.6672 40.1228 77.3106V59.5031L54.0441 67.7301V108.089C54.0441 109.445 55.144 110.545 56.5006 110.545C57.8573 110.545 58.9572 109.445 58.9572 108.089V67.7301L103.48 41.4204C104.648 40.7298 105.035 39.223 104.344 38.0549C103.654 36.8869 102.147 36.4996 100.979 37.1902L56.5006 63.4753L42.4983 55.1992L91.7128 26.1161L108.088 35.7925V86.9624C92.4089 82.8271 76.3459 92.185 72.2106 107.865ZM100.719 140.024C87.1513 140.024 76.153 129.026 76.153 115.458C76.153 101.891 87.1513 90.8929 100.719 90.8929C114.286 90.8929 125.284 101.891 125.284 115.458C125.269 129.019 114.28 140.009 100.719 140.024Z" fill="white"/>
<path d="M109.765 108.809C108.813 107.889 107.303 107.889 106.351 108.809L97.0337 118.126L95.0857 116.178C94.1098 115.235 92.5548 115.262 91.6121 116.238C90.6924 117.19 90.6924 118.7 91.6121 119.652L95.2969 123.337C96.2562 124.296 97.8112 124.296 98.7705 123.337L109.825 112.282C110.768 111.306 110.741 109.751 109.765 108.809Z" fill="white"/>
</svg>
