<svg width="92" height="92" viewBox="0 0 92 92" fill="none" xmlns="http://www.w3.org/2000/svg">
<path d="M78.3447 91.1099H14.126C6.73145 91.1099 0.735352 85.1138 0.735352 77.7192V13.5005C0.735352 6.10592 6.73145 0.109863 14.126 0.109863H78.3447C85.7393 0.109863 91.7354 6.10592 91.7354 13.5005V77.7192C91.7354 85.1138 85.7393 91.1099 78.3447 91.1099Z" fill="white"/>
<path d="M67.7678 23.7881C67.7678 23.7881 64.3876 19.6944 58.4764 19.887C51.4781 20.1191 44.9781 24.3996 45.7255 35.3726C45.7255 35.3726 35.1828 38.5829 18.78 22.9841C18.78 22.9841 13.503 31.5903 22.834 39.6984C22.834 39.6984 20.2125 40.4231 16.7133 38.4753C16.7133 38.4753 14.8392 45.7397 26.8484 51.2489C26.8484 51.2489 22.7943 52.3983 20.9598 51.2489C20.9598 51.2489 22.03 58.9719 32.8161 60.812C32.8161 60.812 27.2731 66.3212 14.1541 66.1683C14.1541 66.1683 41.4337 80.1252 60.3449 62.1879C73.8488 49.3804 71.9747 32.2811 71.9747 32.2811C71.9747 32.2811 75.9494 31.0581 78.3218 26.738C78.3218 26.738 73.8092 28.1535 71.2103 27.9214C71.2103 27.9214 76.1816 24.8186 76.5666 21.1496C76.5609 21.1496 72.3201 24.1731 67.7678 23.7881Z" fill="#343233"/>
</svg>
