<svg width="146" height="147" viewBox="0 0 146 147" fill="none" xmlns="http://www.w3.org/2000/svg">
<path d="M73.0099 0C32.6881 0 0 32.6881 0 73.0099C0 113.332 32.6881 146.02 73.0099 146.02C75.2094 146.02 77.4007 145.921 79.5812 145.725C81.6085 145.543 83.6179 145.265 85.6119 144.917L86.3784 144.782C123.45 137.863 149.155 103.85 145.687 66.2971C142.22 28.7441 110.722 0.0118831 73.0099 0V0ZM67.1444 140.895H66.9721C65.0791 140.727 63.2004 140.474 61.3383 140.149C61.2313 140.13 61.1244 140.119 61.0198 140.098C59.1993 139.773 57.3978 139.369 55.6142 138.897L55.1828 138.787C53.4431 138.315 51.7225 137.767 50.0267 137.159C49.8509 137.096 49.6738 137.04 49.4979 136.974C47.8355 136.364 46.2028 135.679 44.595 134.939C44.3953 134.85 44.1957 134.764 43.9961 134.669C42.4192 133.939 40.8732 133.117 39.3569 132.252C39.143 132.131 38.9267 132.01 38.7128 131.89C37.2203 131.019 35.7622 130.084 34.3315 129.098C34.1152 128.947 33.8966 128.801 33.6815 128.65C32.2757 127.653 30.9056 126.594 29.5711 125.487L29.204 125.166V104.647C29.2218 89.8696 41.1964 77.895 55.9742 77.8772H90.0455C104.823 77.895 116.798 89.8696 116.816 104.647V125.168L116.493 125.438C115.132 126.574 113.736 127.648 112.301 128.663C112.111 128.796 111.919 128.924 111.73 129.054C110.282 130.06 108.799 131.005 107.281 131.894C107.091 132.005 106.896 132.109 106.707 132.219C105.168 133.094 103.603 133.922 102.007 134.667C101.824 134.752 101.64 134.832 101.455 134.91C99.8336 135.658 98.1866 136.346 96.5123 136.961C96.3459 137.023 96.1784 137.077 96.0251 137.135C94.3211 137.746 92.5933 138.298 90.8441 138.772L90.4246 138.877C88.6386 139.349 86.8359 139.755 85.013 140.082C84.9084 140.101 84.8039 140.114 84.6993 140.13C82.8348 140.456 80.9537 140.709 79.0596 140.878H78.8873C76.9408 141.045 74.9932 141.136 73.0218 141.136C71.0504 141.136 69.0873 141.062 67.1444 140.895V140.895ZM121.683 120.656V104.647C121.663 87.1829 107.51 73.0301 90.0455 73.0099H55.9742C38.5096 73.0301 24.3568 87.1829 24.3366 104.647V120.654C-1.87516 93.9016 -1.58283 51.0095 24.9902 24.6159C51.5632 -1.77653 94.4565 -1.77653 121.03 24.6159C147.603 51.0095 147.895 93.9016 121.683 120.654V120.656Z" fill="white"/>
<path d="M73.0098 19.4693C59.5689 19.4693 48.6732 30.3649 48.6732 43.8059C48.6732 57.2469 59.5689 68.1426 73.0098 68.1426C86.4508 68.1426 97.3465 57.2469 97.3465 43.8059C97.3322 30.3709 86.4449 19.4836 73.0098 19.4693ZM73.0098 63.2752C62.2568 63.2752 53.5405 54.559 53.5405 43.8059C53.5405 33.0529 62.2568 24.3366 73.0098 24.3366C83.7629 24.3366 92.4791 33.0529 92.4791 43.8059C92.4673 54.553 83.7569 63.2633 73.0098 63.2752Z" fill="white"/>
</svg>
